<mxfile host="65bd71144e">
    <diagram id="K9E1aG7cnJjAn0adIR3L" name="Page-1">
        <mxGraphModel dx="2731" dy="651" grid="1" gridSize="10" guides="1" tooltips="1" connect="1" arrows="1" fold="1" page="1" pageScale="1" pageWidth="1200" pageHeight="1600" math="0" shadow="0">
            <root>
                <mxCell id="0"/>
                <mxCell id="1" parent="0"/>
                <mxCell id="7" style="edgeStyle=none;html=1;entryX=0.5;entryY=0;entryDx=0;entryDy=0;entryPerimeter=0;fontSize=14;" parent="1" source="2" target="4" edge="1">
                    <mxGeometry relative="1" as="geometry"/>
                </mxCell>
                <mxCell id="2" value="Mensaje inicial." style="rounded=0;whiteSpace=wrap;html=1;fillColor=#FFCC99;" parent="1" vertex="1">
                    <mxGeometry x="690" y="380" width="120" height="60" as="geometry"/>
                </mxCell>
                <mxCell id="49" style="edgeStyle=none;html=1;fontSize=14;" parent="1" source="3" target="47" edge="1">
                    <mxGeometry relative="1" as="geometry"/>
                </mxCell>
                <mxCell id="3" value="Bienvenida." style="rounded=1;whiteSpace=wrap;html=1;fillColor=#CCCCFF;" parent="1" vertex="1">
                    <mxGeometry x="690" y="630" width="120" height="60" as="geometry"/>
                </mxCell>
                <mxCell id="6" style="edgeStyle=none;html=1;fontSize=14;" parent="1" source="4" target="3" edge="1">
                    <mxGeometry relative="1" as="geometry"/>
                </mxCell>
                <mxCell id="10" style="edgeStyle=none;html=1;entryX=0;entryY=0.5;entryDx=0;entryDy=0;fontSize=14;" parent="1" source="4" target="9" edge="1">
                    <mxGeometry relative="1" as="geometry"/>
                </mxCell>
                <mxCell id="4" value="Mensaje&lt;br&gt;&amp;gt;= 20 &lt;br&gt;palabras" style="strokeWidth=2;html=1;shape=mxgraph.flowchart.decision;whiteSpace=wrap;fillColor=#FFFF66;" parent="1" vertex="1">
                    <mxGeometry x="700" y="490" width="100" height="100" as="geometry"/>
                </mxCell>
                <mxCell id="8" value="SI" style="text;html=1;align=center;verticalAlign=middle;resizable=0;points=[];autosize=1;strokeColor=none;fillColor=none;fontSize=14;" parent="1" vertex="1">
                    <mxGeometry x="790" y="510" width="40" height="30" as="geometry"/>
                </mxCell>
                <mxCell id="9" value="Contactar a un asesor." style="rounded=1;whiteSpace=wrap;html=1;fontSize=14;fillColor=#CCCCFF;" parent="1" vertex="1">
                    <mxGeometry x="930" y="510" width="120" height="60" as="geometry"/>
                </mxCell>
                <mxCell id="72" style="edgeStyle=none;html=1;entryX=0.5;entryY=0;entryDx=0;entryDy=0;fontSize=14;" parent="1" source="12" target="22" edge="1">
                    <mxGeometry relative="1" as="geometry"/>
                </mxCell>
                <mxCell id="12" value="Oferta academica." style="rounded=0;whiteSpace=wrap;html=1;fontSize=14;fillColor=#FFCC99;" parent="1" vertex="1">
                    <mxGeometry x="690" y="1070" width="120" height="60" as="geometry"/>
                </mxCell>
                <mxCell id="33" style="edgeStyle=none;html=1;entryX=0.5;entryY=0;entryDx=0;entryDy=0;fontSize=14;exitX=0.5;exitY=1;exitDx=0;exitDy=0;fillColor=#CCCCFF;" parent="1" source="14" target="20" edge="1">
                    <mxGeometry relative="1" as="geometry">
                        <Array as="points">
                            <mxPoint x="130" y="1400"/>
                            <mxPoint x="-50" y="1400"/>
                        </Array>
                    </mxGeometry>
                </mxCell>
                <mxCell id="34" style="edgeStyle=none;html=1;entryX=0.5;entryY=0;entryDx=0;entryDy=0;fontSize=14;exitX=0.5;exitY=1;exitDx=0;exitDy=0;fillColor=#CCCCFF;" parent="1" source="14" target="21" edge="1">
                    <mxGeometry relative="1" as="geometry">
                        <Array as="points">
                            <mxPoint x="130" y="1400"/>
                            <mxPoint x="300" y="1400"/>
                        </Array>
                    </mxGeometry>
                </mxCell>
                <mxCell id="14" value="Licenciatura." style="rounded=1;whiteSpace=wrap;html=1;fontSize=14;fillColor=#CCCCFF;" parent="1" vertex="1">
                    <mxGeometry x="70" y="1320" width="120" height="60" as="geometry"/>
                </mxCell>
                <mxCell id="89" style="edgeStyle=none;html=1;fontSize=14;fillColor=#CCCCFF;" parent="1" source="15" target="40" edge="1">
                    <mxGeometry relative="1" as="geometry"/>
                </mxCell>
                <mxCell id="15" value="Bachillerato general." style="rounded=1;whiteSpace=wrap;html=1;fontSize=14;fillColor=#CCCCFF;" parent="1" vertex="1">
                    <mxGeometry x="540" y="1320" width="120" height="60" as="geometry"/>
                </mxCell>
                <mxCell id="88" style="edgeStyle=none;html=1;entryX=0.5;entryY=0;entryDx=0;entryDy=0;fontSize=14;fillColor=#CCCCFF;" parent="1" source="16" target="45" edge="1">
                    <mxGeometry relative="1" as="geometry"/>
                </mxCell>
                <mxCell id="16" value="Prepa UNAM." style="rounded=1;whiteSpace=wrap;html=1;fontSize=14;fillColor=#CCCCFF;" parent="1" vertex="1">
                    <mxGeometry x="770" y="1320" width="120" height="60" as="geometry"/>
                </mxCell>
                <mxCell id="84" style="edgeStyle=none;html=1;entryX=0.5;entryY=0;entryDx=0;entryDy=0;fontSize=14;fillColor=#CCCCFF;" parent="1" source="17" target="83" edge="1">
                    <mxGeometry relative="1" as="geometry"/>
                </mxCell>
                <mxCell id="17" value="Cursos." style="rounded=1;whiteSpace=wrap;html=1;fontSize=14;fillColor=#CCCCFF;" parent="1" vertex="1">
                    <mxGeometry x="970" y="1320" width="120" height="60" as="geometry"/>
                </mxCell>
                <mxCell id="85" style="edgeStyle=none;html=1;entryX=0.5;entryY=0;entryDx=0;entryDy=0;fontSize=14;fillColor=#CCCCFF;" parent="1" source="18" target="42" edge="1">
                    <mxGeometry relative="1" as="geometry">
                        <Array as="points">
                            <mxPoint x="1230" y="1420"/>
                        </Array>
                    </mxGeometry>
                </mxCell>
                <mxCell id="18" value="Maestrias." style="rounded=1;whiteSpace=wrap;html=1;fontSize=14;fillColor=#CCCCFF;" parent="1" vertex="1">
                    <mxGeometry x="1170" y="1320" width="120" height="60" as="geometry"/>
                </mxCell>
                <mxCell id="87" style="edgeStyle=none;html=1;entryX=0.5;entryY=0;entryDx=0;entryDy=0;fontSize=14;fillColor=#CCCCFF;" parent="1" source="19" target="86" edge="1">
                    <mxGeometry relative="1" as="geometry"/>
                </mxCell>
                <mxCell id="19" value="Diplomados." style="rounded=1;whiteSpace=wrap;html=1;fontSize=14;fillColor=#CCCCFF;" parent="1" vertex="1">
                    <mxGeometry x="1390" y="1320" width="120" height="60" as="geometry"/>
                </mxCell>
                <mxCell id="28" style="edgeStyle=none;html=1;entryX=0.5;entryY=0;entryDx=0;entryDy=0;fontSize=14;fillColor=#CCCCFF;" parent="1" source="20" target="25" edge="1">
                    <mxGeometry relative="1" as="geometry"/>
                </mxCell>
                <mxCell id="20" value="Presencial." style="rounded=1;whiteSpace=wrap;html=1;fontSize=14;fillColor=#CCCCFF;" parent="1" vertex="1">
                    <mxGeometry x="-110" y="1420" width="120" height="60" as="geometry"/>
                </mxCell>
                <mxCell id="29" style="edgeStyle=none;html=1;entryX=0.5;entryY=0;entryDx=0;entryDy=0;fontSize=14;fillColor=#CCCCFF;" parent="1" source="21" target="23" edge="1">
                    <mxGeometry relative="1" as="geometry">
                        <Array as="points">
                            <mxPoint x="300" y="1520"/>
                            <mxPoint x="180" y="1520"/>
                        </Array>
                    </mxGeometry>
                </mxCell>
                <mxCell id="30" style="edgeStyle=none;html=1;entryX=0.5;entryY=0;entryDx=0;entryDy=0;fontSize=14;exitX=0.5;exitY=1;exitDx=0;exitDy=0;fillColor=#CCCCFF;" parent="1" source="21" target="24" edge="1">
                    <mxGeometry relative="1" as="geometry">
                        <Array as="points">
                            <mxPoint x="300" y="1520"/>
                            <mxPoint x="420" y="1520"/>
                        </Array>
                    </mxGeometry>
                </mxCell>
                <mxCell id="21" value="Empresarial." style="rounded=1;whiteSpace=wrap;html=1;fontSize=14;fillColor=#CCCCFF;" parent="1" vertex="1">
                    <mxGeometry x="240" y="1430" width="120" height="60" as="geometry"/>
                </mxCell>
                <mxCell id="73" style="edgeStyle=none;html=1;entryX=0.5;entryY=0;entryDx=0;entryDy=0;fontSize=14;fillColor=#CCCCFF;" parent="1" source="22" target="15" edge="1">
                    <mxGeometry relative="1" as="geometry">
                        <Array as="points">
                            <mxPoint x="750" y="1280"/>
                            <mxPoint x="600" y="1280"/>
                        </Array>
                    </mxGeometry>
                </mxCell>
                <mxCell id="74" style="edgeStyle=none;html=1;exitX=0.5;exitY=1;exitDx=0;exitDy=0;entryX=0.5;entryY=0;entryDx=0;entryDy=0;fontSize=14;fillColor=#CCCCFF;" parent="1" source="22" target="16" edge="1">
                    <mxGeometry relative="1" as="geometry">
                        <Array as="points">
                            <mxPoint x="750" y="1280"/>
                            <mxPoint x="830" y="1280"/>
                        </Array>
                    </mxGeometry>
                </mxCell>
                <mxCell id="75" style="edgeStyle=none;html=1;exitX=0.5;exitY=1;exitDx=0;exitDy=0;entryX=0.5;entryY=0;entryDx=0;entryDy=0;fontSize=14;fillColor=#CCCCFF;" parent="1" source="22" target="17" edge="1">
                    <mxGeometry relative="1" as="geometry">
                        <Array as="points">
                            <mxPoint x="750" y="1280"/>
                            <mxPoint x="1030" y="1280"/>
                        </Array>
                    </mxGeometry>
                </mxCell>
                <mxCell id="76" style="edgeStyle=none;html=1;fontSize=14;entryX=0.5;entryY=0;entryDx=0;entryDy=0;fillColor=#CCCCFF;" parent="1" source="22" target="18" edge="1">
                    <mxGeometry relative="1" as="geometry">
                        <mxPoint x="1080" y="1279.9999999999998" as="targetPoint"/>
                        <Array as="points">
                            <mxPoint x="750" y="1280"/>
                            <mxPoint x="1230" y="1280"/>
                        </Array>
                    </mxGeometry>
                </mxCell>
                <mxCell id="77" style="edgeStyle=none;html=1;entryX=0.5;entryY=0;entryDx=0;entryDy=0;fontSize=14;fillColor=#CCCCFF;" parent="1" source="22" target="19" edge="1">
                    <mxGeometry relative="1" as="geometry">
                        <Array as="points">
                            <mxPoint x="750" y="1280"/>
                            <mxPoint x="1450" y="1280"/>
                        </Array>
                    </mxGeometry>
                </mxCell>
                <mxCell id="82" style="edgeStyle=none;html=1;entryX=0.5;entryY=0;entryDx=0;entryDy=0;fontSize=14;fillColor=#CCCCFF;" parent="1" source="22" target="14" edge="1">
                    <mxGeometry relative="1" as="geometry">
                        <Array as="points">
                            <mxPoint x="750" y="1280"/>
                            <mxPoint x="130" y="1280"/>
                        </Array>
                    </mxGeometry>
                </mxCell>
                <mxCell id="22" value="Oferta educativa general." style="rounded=1;whiteSpace=wrap;html=1;fontSize=14;fillColor=#CCCCFF;" parent="1" vertex="1">
                    <mxGeometry x="690" y="1190" width="120" height="60" as="geometry"/>
                </mxCell>
                <mxCell id="31" style="edgeStyle=none;html=1;entryX=0.5;entryY=0;entryDx=0;entryDy=0;fontSize=14;fillColor=#CCCCFF;" parent="1" source="23" target="26" edge="1">
                    <mxGeometry relative="1" as="geometry"/>
                </mxCell>
                <mxCell id="23" value="Sabatinas." style="rounded=1;whiteSpace=wrap;html=1;fontSize=14;fillColor=#CCCCFF;" parent="1" vertex="1">
                    <mxGeometry x="120" y="1540" width="120" height="60" as="geometry"/>
                </mxCell>
                <mxCell id="32" style="edgeStyle=none;html=1;entryX=0.5;entryY=0;entryDx=0;entryDy=0;fontSize=14;fillColor=#CCCCFF;" parent="1" source="24" target="27" edge="1">
                    <mxGeometry relative="1" as="geometry"/>
                </mxCell>
                <mxCell id="24" value="Linea" style="rounded=1;whiteSpace=wrap;html=1;fontSize=14;fillColor=#CCCCFF;" parent="1" vertex="1">
                    <mxGeometry x="360" y="1540" width="120" height="60" as="geometry"/>
                </mxCell>
                <mxCell id="80" style="edgeStyle=none;html=1;fontSize=14;fillColor=#CCCCFF;" parent="1" source="25" target="38" edge="1">
                    <mxGeometry relative="1" as="geometry"/>
                </mxCell>
                <mxCell id="25" value="&lt;div style=&quot;text-align: justify;&quot;&gt;&lt;span style=&quot;background-color: initial;&quot;&gt;Administración de empresas.&lt;/span&gt;&lt;/div&gt;&lt;div style=&quot;text-align: justify;&quot;&gt;&lt;span style=&quot;background-color: initial;&quot;&gt;Administración de empresas turísticas.&lt;/span&gt;&lt;/div&gt;&lt;div style=&quot;text-align: justify;&quot;&gt;&lt;span style=&quot;background-color: initial;&quot;&gt;Arquitectura.&lt;/span&gt;&lt;/div&gt;&lt;div style=&quot;text-align: justify;&quot;&gt;&lt;span style=&quot;background-color: initial;&quot;&gt;Ciencias de la comunicación.&lt;/span&gt;&lt;/div&gt;&lt;div style=&quot;text-align: justify;&quot;&gt;&lt;span style=&quot;background-color: initial;&quot;&gt;Comercio internacional.&lt;/span&gt;&lt;/div&gt;&lt;div style=&quot;text-align: justify;&quot;&gt;&lt;span style=&quot;background-color: initial;&quot;&gt;Contaduría.&lt;/span&gt;&lt;/div&gt;&lt;div style=&quot;text-align: justify;&quot;&gt;&lt;span style=&quot;background-color: initial;&quot;&gt;Derecho.&lt;/span&gt;&lt;/div&gt;&lt;div style=&quot;text-align: justify;&quot;&gt;&lt;span style=&quot;background-color: initial;&quot;&gt;Diseño gráfico.&lt;/span&gt;&lt;/div&gt;&lt;div style=&quot;text-align: justify;&quot;&gt;&lt;span style=&quot;background-color: initial;&quot;&gt;Fisioterapia.&lt;/span&gt;&lt;/div&gt;&lt;div style=&quot;text-align: justify;&quot;&gt;Gastronomía.&lt;/div&gt;&lt;div style=&quot;text-align: justify;&quot;&gt;Ingenieria en sistemas computacionales.&lt;/div&gt;&lt;div style=&quot;text-align: justify;&quot;&gt;Mercadotecnia.&lt;/div&gt;&lt;div style=&quot;text-align: justify;&quot;&gt;Nutrición.&lt;/div&gt;&lt;div style=&quot;text-align: justify;&quot;&gt;Psicología.&lt;/div&gt;&lt;div style=&quot;text-align: justify;&quot;&gt;Pedagogia.&lt;/div&gt;" style="rounded=1;whiteSpace=wrap;html=1;fontSize=14;fillColor=#CCCCFF;" parent="1" vertex="1">
                    <mxGeometry x="-180" y="1500" width="260" height="290" as="geometry"/>
                </mxCell>
                <mxCell id="79" style="edgeStyle=none;html=1;fontSize=14;fillColor=#CCCCFF;" parent="1" source="26" target="37" edge="1">
                    <mxGeometry relative="1" as="geometry"/>
                </mxCell>
                <mxCell id="26" value="&lt;div style=&quot;text-align: justify;&quot;&gt;&lt;span style=&quot;background-color: initial;&quot;&gt;Derecho.&lt;/span&gt;&lt;/div&gt;&lt;div style=&quot;text-align: justify;&quot;&gt;&lt;span style=&quot;background-color: initial;&quot;&gt;Administración de empresas.&lt;/span&gt;&lt;/div&gt;" style="rounded=1;whiteSpace=wrap;html=1;fontSize=14;fillColor=#CCCCFF;" parent="1" vertex="1">
                    <mxGeometry x="120" y="1630" width="120" height="60" as="geometry"/>
                </mxCell>
                <mxCell id="78" style="edgeStyle=none;html=1;entryX=0.5;entryY=0;entryDx=0;entryDy=0;fontSize=14;fillColor=#CCCCFF;" parent="1" source="27" target="39" edge="1">
                    <mxGeometry relative="1" as="geometry"/>
                </mxCell>
                <mxCell id="27" value="&lt;div style=&quot;text-align: justify;&quot;&gt;Contaduría.&lt;/div&gt;&lt;div style=&quot;text-align: justify;&quot;&gt;Pedagogía.&lt;/div&gt;" style="rounded=1;whiteSpace=wrap;html=1;fontSize=14;fillColor=#CCCCFF;" parent="1" vertex="1">
                    <mxGeometry x="360" y="1630" width="120" height="60" as="geometry"/>
                </mxCell>
                <mxCell id="103" value="" style="edgeStyle=none;html=1;fontSize=14;fillColor=#CCCCFF;" parent="1" source="37" target="98" edge="1">
                    <mxGeometry relative="1" as="geometry"/>
                </mxCell>
                <mxCell id="37" value="Plan de estudios para la opción elegida." style="rounded=1;whiteSpace=wrap;html=1;fontSize=14;fillColor=#CCCCFF;" parent="1" vertex="1">
                    <mxGeometry x="120" y="1730" width="120" height="60" as="geometry"/>
                </mxCell>
                <mxCell id="104" value="" style="edgeStyle=none;html=1;fontSize=14;fillColor=#CCCCFF;" parent="1" source="38" target="99" edge="1">
                    <mxGeometry relative="1" as="geometry"/>
                </mxCell>
                <mxCell id="38" value="Plan de estudios para la opción elegida." style="rounded=1;whiteSpace=wrap;html=1;fontSize=14;fillColor=#CCCCFF;" parent="1" vertex="1">
                    <mxGeometry x="-110" y="1810" width="120" height="60" as="geometry"/>
                </mxCell>
                <mxCell id="102" value="" style="edgeStyle=none;html=1;fontSize=14;fillColor=#CCCCFF;" parent="1" source="39" target="97" edge="1">
                    <mxGeometry relative="1" as="geometry"/>
                </mxCell>
                <mxCell id="39" value="Plan de estudios para la opción elegida." style="rounded=1;whiteSpace=wrap;html=1;fontSize=14;fillColor=#CCCCFF;" parent="1" vertex="1">
                    <mxGeometry x="360" y="1730" width="120" height="60" as="geometry"/>
                </mxCell>
                <mxCell id="92" style="edgeStyle=none;html=1;entryX=0.5;entryY=0;entryDx=0;entryDy=0;fontSize=14;fillColor=#CCCCFF;" parent="1" source="40" target="91" edge="1">
                    <mxGeometry relative="1" as="geometry"/>
                </mxCell>
                <mxCell id="40" value="Plan de estudios." style="rounded=1;whiteSpace=wrap;html=1;fontSize=14;fillColor=#CCCCFF;" parent="1" vertex="1">
                    <mxGeometry x="540" y="1400" width="120" height="60" as="geometry"/>
                </mxCell>
                <mxCell id="100" style="edgeStyle=none;html=1;fontSize=14;fillColor=#CCCCFF;" parent="1" source="42" target="90" edge="1">
                    <mxGeometry relative="1" as="geometry"/>
                </mxCell>
                <mxCell id="42" value="&lt;div style=&quot;text-align: justify;&quot;&gt;&lt;span style=&quot;background-color: initial;&quot;&gt;Administración y gestión de estratégica de talento humano.&lt;/span&gt;&lt;/div&gt;&lt;div style=&quot;text-align: justify;&quot;&gt;&lt;span style=&quot;background-color: initial;&quot;&gt;Derecho fiscal y administrativo.&lt;/span&gt;&lt;/div&gt;&lt;div style=&quot;text-align: justify;&quot;&gt;&lt;span style=&quot;background-color: initial;&quot;&gt;Derecho procesal penal acusatorio y adversarial.&lt;/span&gt;&lt;/div&gt;&lt;div style=&quot;text-align: justify;&quot;&gt;&lt;span style=&quot;background-color: initial;&quot;&gt;Educación&lt;/span&gt;&lt;/div&gt;&lt;div style=&quot;text-align: justify;&quot;&gt;&lt;span style=&quot;background-color: initial;&quot;&gt;Seguridad de sistemas y tecnologías de la información.&lt;/span&gt;&lt;/div&gt;" style="rounded=1;whiteSpace=wrap;html=1;fontSize=14;fillColor=#CCCCFF;" parent="1" vertex="1">
                    <mxGeometry x="1102.5" y="1465" width="255" height="135" as="geometry"/>
                </mxCell>
                <mxCell id="105" value="" style="edgeStyle=none;html=1;fontSize=14;fillColor=#CCCCFF;" parent="1" source="45" target="93" edge="1">
                    <mxGeometry relative="1" as="geometry"/>
                </mxCell>
                <mxCell id="45" value="Plan de estudios." style="rounded=1;whiteSpace=wrap;html=1;fontSize=14;fillColor=#CCCCFF;" parent="1" vertex="1">
                    <mxGeometry x="770" y="1430" width="120" height="60" as="geometry"/>
                </mxCell>
                <mxCell id="61" style="edgeStyle=none;html=1;fontSize=14;fillColor=#FFFF66;" parent="1" source="46" target="58" edge="1">
                    <mxGeometry relative="1" as="geometry"/>
                </mxCell>
                <mxCell id="70" style="edgeStyle=none;html=1;entryX=0.5;entryY=0;entryDx=0;entryDy=0;fontSize=14;exitX=0.5;exitY=1;exitDx=0;exitDy=0;exitPerimeter=0;" parent="1" source="46" target="12" edge="1">
                    <mxGeometry relative="1" as="geometry">
                        <mxPoint x="870" y="1050" as="sourcePoint"/>
                    </mxGeometry>
                </mxCell>
                <mxCell id="71" style="edgeStyle=none;html=1;entryX=0.5;entryY=0;entryDx=0;entryDy=0;fontSize=14;exitX=0.5;exitY=1;exitDx=0;exitDy=0;exitPerimeter=0;" parent="1" source="46" target="69" edge="1">
                    <mxGeometry relative="1" as="geometry">
                        <Array as="points">
                            <mxPoint x="750" y="1010"/>
                            <mxPoint x="2400" y="1010"/>
                        </Array>
                    </mxGeometry>
                </mxCell>
                <mxCell id="46" value="Pregunta encontrada?" style="strokeWidth=2;html=1;shape=mxgraph.flowchart.decision;whiteSpace=wrap;fillColor=#FFFF66;" parent="1" vertex="1">
                    <mxGeometry x="700" y="880" width="100" height="100" as="geometry"/>
                </mxCell>
                <mxCell id="48" style="edgeStyle=none;html=1;entryX=0.5;entryY=0;entryDx=0;entryDy=0;entryPerimeter=0;fontSize=14;" parent="1" source="47" target="46" edge="1">
                    <mxGeometry relative="1" as="geometry"/>
                </mxCell>
                <mxCell id="47" value="Pregunta." style="rounded=0;whiteSpace=wrap;html=1;fillColor=#FFCC99;" parent="1" vertex="1">
                    <mxGeometry x="690" y="760" width="120" height="60" as="geometry"/>
                </mxCell>
                <mxCell id="51" value="SI" style="text;html=1;align=center;verticalAlign=middle;resizable=0;points=[];autosize=1;strokeColor=none;fillColor=none;fontSize=14;" parent="1" vertex="1">
                    <mxGeometry x="710" y="980" width="40" height="30" as="geometry"/>
                </mxCell>
                <mxCell id="64" style="edgeStyle=none;html=1;entryX=0.007;entryY=0.61;entryDx=0;entryDy=0;entryPerimeter=0;fontSize=14;exitX=1;exitY=0.5;exitDx=0;exitDy=0;" parent="1" source="53" target="47" edge="1">
                    <mxGeometry relative="1" as="geometry">
                        <Array as="points">
                            <mxPoint x="640" y="720"/>
                            <mxPoint x="640" y="797"/>
                        </Array>
                    </mxGeometry>
                </mxCell>
                <mxCell id="53" value="Menu." style="rounded=1;whiteSpace=wrap;html=1;fontSize=14;fillColor=#CCCCFF;" parent="1" vertex="1">
                    <mxGeometry x="460" y="690" width="120" height="60" as="geometry"/>
                </mxCell>
                <mxCell id="56" value="NO" style="text;html=1;align=center;verticalAlign=middle;resizable=0;points=[];autosize=1;strokeColor=none;fillColor=none;fontSize=14;" parent="1" vertex="1">
                    <mxGeometry x="610" y="900" width="40" height="30" as="geometry"/>
                </mxCell>
                <mxCell id="62" style="edgeStyle=none;html=1;entryX=0.5;entryY=1;entryDx=0;entryDy=0;fontSize=14;" parent="1" source="57" target="53" edge="1">
                    <mxGeometry relative="1" as="geometry"/>
                </mxCell>
                <mxCell id="57" value="Pregunta incorrecta&amp;nbsp;&lt;br&gt;+1" style="rounded=1;whiteSpace=wrap;html=1;fontSize=14;fillColor=#CCCCFF;" parent="1" vertex="1">
                    <mxGeometry x="460" y="790" width="120" height="60" as="geometry"/>
                </mxCell>
                <mxCell id="59" style="edgeStyle=none;html=1;entryX=0.5;entryY=1;entryDx=0;entryDy=0;fontSize=14;" parent="1" source="58" target="57" edge="1">
                    <mxGeometry relative="1" as="geometry"/>
                </mxCell>
                <mxCell id="66" style="edgeStyle=none;html=1;fontSize=14;entryX=0;entryY=0.5;entryDx=0;entryDy=0;startArrow=none;" parent="1" target="9" edge="1">
                    <mxGeometry relative="1" as="geometry">
                        <mxPoint x="890" y="590" as="targetPoint"/>
                        <mxPoint x="390" y="920" as="sourcePoint"/>
                        <Array as="points">
                            <mxPoint x="390" y="640"/>
                            <mxPoint x="460" y="640"/>
                            <mxPoint x="660" y="640"/>
                            <mxPoint x="660" y="730"/>
                            <mxPoint x="730" y="730"/>
                            <mxPoint x="730" y="720"/>
                            <mxPoint x="770" y="720"/>
                            <mxPoint x="770" y="730"/>
                            <mxPoint x="870" y="730"/>
                            <mxPoint x="870" y="540"/>
                        </Array>
                    </mxGeometry>
                </mxCell>
                <mxCell id="58" value="Pregunta incorrecta&lt;br&gt;&amp;gt;=2" style="strokeWidth=2;html=1;shape=mxgraph.flowchart.decision;whiteSpace=wrap;fillColor=#FFFF66;" parent="1" vertex="1">
                    <mxGeometry x="470" y="880" width="100" height="100" as="geometry"/>
                </mxCell>
                <mxCell id="60" value="NO" style="text;html=1;align=center;verticalAlign=middle;resizable=0;points=[];autosize=1;strokeColor=none;fillColor=none;fontSize=14;" parent="1" vertex="1">
                    <mxGeometry x="520" y="850" width="40" height="30" as="geometry"/>
                </mxCell>
                <mxCell id="167" style="edgeStyle=none;html=1;entryX=0.5;entryY=0;entryDx=0;entryDy=0;" edge="1" parent="1" source="69" target="157">
                    <mxGeometry relative="1" as="geometry">
                        <Array as="points">
                            <mxPoint x="2400" y="1220"/>
                            <mxPoint x="1810" y="1220"/>
                        </Array>
                    </mxGeometry>
                </mxCell>
                <mxCell id="168" style="edgeStyle=none;html=1;entryX=0.5;entryY=0;entryDx=0;entryDy=0;" edge="1" parent="1" source="69" target="158">
                    <mxGeometry relative="1" as="geometry">
                        <Array as="points">
                            <mxPoint x="2400" y="1220"/>
                            <mxPoint x="1960" y="1220"/>
                        </Array>
                    </mxGeometry>
                </mxCell>
                <mxCell id="169" style="edgeStyle=none;html=1;entryX=0.5;entryY=0;entryDx=0;entryDy=0;" edge="1" parent="1" source="69" target="159">
                    <mxGeometry relative="1" as="geometry">
                        <Array as="points">
                            <mxPoint x="2400" y="1220"/>
                            <mxPoint x="2100" y="1220"/>
                        </Array>
                    </mxGeometry>
                </mxCell>
                <mxCell id="170" style="edgeStyle=none;html=1;entryX=0.5;entryY=0;entryDx=0;entryDy=0;" edge="1" parent="1" source="69" target="160">
                    <mxGeometry relative="1" as="geometry">
                        <Array as="points">
                            <mxPoint x="2400" y="1220"/>
                            <mxPoint x="2250" y="1220"/>
                        </Array>
                    </mxGeometry>
                </mxCell>
                <mxCell id="171" style="edgeStyle=none;html=1;entryX=0.5;entryY=0;entryDx=0;entryDy=0;" edge="1" parent="1" source="69" target="161">
                    <mxGeometry relative="1" as="geometry"/>
                </mxCell>
                <mxCell id="172" style="edgeStyle=none;html=1;entryX=0.5;entryY=0;entryDx=0;entryDy=0;" edge="1" parent="1" source="69" target="162">
                    <mxGeometry relative="1" as="geometry">
                        <Array as="points">
                            <mxPoint x="2400" y="1220"/>
                            <mxPoint x="2540" y="1220"/>
                        </Array>
                    </mxGeometry>
                </mxCell>
                <mxCell id="173" style="edgeStyle=none;html=1;entryX=0.5;entryY=0;entryDx=0;entryDy=0;" edge="1" parent="1" source="69" target="163">
                    <mxGeometry relative="1" as="geometry">
                        <Array as="points">
                            <mxPoint x="2400" y="1220"/>
                            <mxPoint x="2690" y="1220"/>
                        </Array>
                    </mxGeometry>
                </mxCell>
                <mxCell id="174" style="edgeStyle=none;html=1;entryX=0.5;entryY=0;entryDx=0;entryDy=0;" edge="1" parent="1" source="69" target="165">
                    <mxGeometry relative="1" as="geometry">
                        <Array as="points">
                            <mxPoint x="2400" y="1220"/>
                            <mxPoint x="2840" y="1220"/>
                        </Array>
                    </mxGeometry>
                </mxCell>
                <mxCell id="175" style="edgeStyle=none;html=1;entryX=0.5;entryY=0;entryDx=0;entryDy=0;" edge="1" parent="1" source="69" target="166">
                    <mxGeometry relative="1" as="geometry">
                        <Array as="points">
                            <mxPoint x="2400" y="1220"/>
                            <mxPoint x="2980" y="1220"/>
                        </Array>
                    </mxGeometry>
                </mxCell>
                <mxCell id="69" value="Preguntas frecuentes." style="rounded=0;whiteSpace=wrap;html=1;fontSize=14;fillColor=#FFCC99;" parent="1" vertex="1">
                    <mxGeometry x="2340" y="1080" width="120" height="60" as="geometry"/>
                </mxCell>
                <mxCell id="81" value="" style="edgeStyle=none;html=1;fontSize=14;exitX=0;exitY=0.5;exitDx=0;exitDy=0;exitPerimeter=0;endArrow=none;fillColor=#FFFF66;" parent="1" source="58" edge="1">
                    <mxGeometry relative="1" as="geometry">
                        <mxPoint x="390" y="920" as="targetPoint"/>
                        <mxPoint x="470" y="930" as="sourcePoint"/>
                        <Array as="points">
                            <mxPoint x="390" y="930"/>
                        </Array>
                    </mxGeometry>
                </mxCell>
                <mxCell id="68" value="SI" style="text;html=1;align=center;verticalAlign=middle;resizable=0;points=[];autosize=1;strokeColor=none;fillColor=none;fontSize=14;" parent="1" vertex="1">
                    <mxGeometry x="420" y="900" width="40" height="30" as="geometry"/>
                </mxCell>
                <mxCell id="106" value="" style="edgeStyle=none;html=1;fontSize=14;fillColor=#CCCCFF;" parent="1" source="83" target="94" edge="1">
                    <mxGeometry relative="1" as="geometry"/>
                </mxCell>
                <mxCell id="83" value="Información sobre el curso de ingles." style="rounded=1;whiteSpace=wrap;html=1;fontSize=14;fillColor=#CCCCFF;" parent="1" vertex="1">
                    <mxGeometry x="970" y="1430" width="120" height="60" as="geometry"/>
                </mxCell>
                <mxCell id="107" value="" style="edgeStyle=none;html=1;fontSize=14;fillColor=#CCCCFF;" parent="1" source="86" target="96" edge="1">
                    <mxGeometry relative="1" as="geometry"/>
                </mxCell>
                <mxCell id="86" value="Neuromarketing&lt;br&gt;Sabor y salud&lt;br&gt;Habilidades gerenciales." style="rounded=1;whiteSpace=wrap;html=1;fontSize=14;fillColor=#CCCCFF;" parent="1" vertex="1">
                    <mxGeometry x="1375" y="1430" width="150" height="90" as="geometry"/>
                </mxCell>
                <mxCell id="101" style="edgeStyle=none;html=1;entryX=0.5;entryY=0;entryDx=0;entryDy=0;fontSize=14;fillColor=#CCCCFF;" parent="1" source="90" target="95" edge="1">
                    <mxGeometry relative="1" as="geometry"/>
                </mxCell>
                <mxCell id="90" value="Plan de estudios para la opción elegida." style="rounded=1;whiteSpace=wrap;html=1;fontSize=14;fillColor=#CCCCFF;" parent="1" vertex="1">
                    <mxGeometry x="1170" y="1630" width="120" height="60" as="geometry"/>
                </mxCell>
                <mxCell id="122" style="edgeStyle=none;html=1;fontSize=14;exitX=0.5;exitY=1;exitDx=0;exitDy=0;" parent="1" edge="1">
                    <mxGeometry relative="1" as="geometry">
                        <mxPoint x="320" y="2200" as="targetPoint"/>
                        <mxPoint x="600" y="1710" as="sourcePoint"/>
                        <Array as="points">
                            <mxPoint x="600" y="2020"/>
                            <mxPoint x="320" y="2020"/>
                        </Array>
                    </mxGeometry>
                </mxCell>
                <mxCell id="135" value="" style="edgeStyle=none;html=1;fontSize=14;fillColor=#CCCCFF;entryX=0.5;entryY=0;entryDx=0;entryDy=0;" parent="1" source="91" target="151" edge="1">
                    <mxGeometry relative="1" as="geometry">
                        <mxPoint x="600" y="1660" as="targetPoint"/>
                    </mxGeometry>
                </mxCell>
                <mxCell id="91" value="Mensaje sobre la información de Bachillerato General y características sobre Bachillerato General." style="rounded=1;whiteSpace=wrap;html=1;fontSize=14;fillColor=#CCCCFF;" parent="1" vertex="1">
                    <mxGeometry x="535" y="1490" width="130" height="100" as="geometry"/>
                </mxCell>
                <mxCell id="123" style="edgeStyle=none;html=1;fontSize=14;exitX=0.5;exitY=1;exitDx=0;exitDy=0;" parent="1" edge="1">
                    <mxGeometry relative="1" as="geometry">
                        <mxPoint x="320" y="2200" as="targetPoint"/>
                        <mxPoint x="830" y="1710" as="sourcePoint"/>
                        <Array as="points">
                            <mxPoint x="830" y="2020"/>
                            <mxPoint x="320" y="2020"/>
                        </Array>
                    </mxGeometry>
                </mxCell>
                <mxCell id="137" value="" style="edgeStyle=none;html=1;fontSize=14;fillColor=#CCCCFF;entryX=0.5;entryY=0;entryDx=0;entryDy=0;" parent="1" source="93" target="152" edge="1">
                    <mxGeometry relative="1" as="geometry">
                        <mxPoint x="830" y="1660" as="targetPoint"/>
                    </mxGeometry>
                </mxCell>
                <mxCell id="93" value="Mensaje sobre la información de Prepa UNAM y características sobre Prepa UNAM." style="rounded=1;whiteSpace=wrap;html=1;fontSize=14;fillColor=#CCCCFF;" parent="1" vertex="1">
                    <mxGeometry x="765" y="1530" width="130" height="90" as="geometry"/>
                </mxCell>
                <mxCell id="124" style="edgeStyle=none;html=1;entryX=0.5;entryY=0;entryDx=0;entryDy=0;fontSize=14;exitX=0.5;exitY=1;exitDx=0;exitDy=0;" parent="1" target="108" edge="1">
                    <mxGeometry relative="1" as="geometry">
                        <mxPoint x="1030" y="1710" as="sourcePoint"/>
                        <Array as="points">
                            <mxPoint x="1030" y="2020"/>
                            <mxPoint x="320" y="2020"/>
                        </Array>
                    </mxGeometry>
                </mxCell>
                <mxCell id="139" value="" style="edgeStyle=none;html=1;fontSize=14;fillColor=#CCCCFF;entryX=0.499;entryY=-0.042;entryDx=0;entryDy=0;entryPerimeter=0;" parent="1" source="94" target="153" edge="1">
                    <mxGeometry relative="1" as="geometry">
                        <mxPoint x="1030" y="1660" as="targetPoint"/>
                    </mxGeometry>
                </mxCell>
                <mxCell id="94" value="Mensaje sobre la información del curso de ingles y características." style="rounded=1;whiteSpace=wrap;html=1;fontSize=14;fillColor=#CCCCFF;" parent="1" vertex="1">
                    <mxGeometry x="970" y="1530" width="120" height="90" as="geometry"/>
                </mxCell>
                <mxCell id="125" style="edgeStyle=none;html=1;fontSize=14;exitX=0.506;exitY=1.061;exitDx=0;exitDy=0;exitPerimeter=0;" parent="1" source="155" edge="1">
                    <mxGeometry relative="1" as="geometry">
                        <mxPoint x="320" y="2200" as="targetPoint"/>
                        <mxPoint x="1230" y="1890" as="sourcePoint"/>
                        <Array as="points">
                            <mxPoint x="1230" y="2020"/>
                            <mxPoint x="320" y="2020"/>
                        </Array>
                    </mxGeometry>
                </mxCell>
                <mxCell id="141" value="" style="edgeStyle=none;html=1;fontSize=14;fillColor=#CCCCFF;" parent="1" source="95" target="155" edge="1">
                    <mxGeometry relative="1" as="geometry">
                        <mxPoint x="1230" y="1840" as="targetPoint"/>
                    </mxGeometry>
                </mxCell>
                <mxCell id="95" value="Mensaje sobre la información de la carrera y características sobre la carrera." style="rounded=1;whiteSpace=wrap;html=1;fontSize=14;fillColor=#CCCCFF;" parent="1" vertex="1">
                    <mxGeometry x="1170" y="1710" width="120" height="90" as="geometry"/>
                </mxCell>
                <mxCell id="127" style="edgeStyle=none;html=1;entryX=0.5;entryY=0;entryDx=0;entryDy=0;fontSize=14;fillColor=#FF2212;exitX=0.5;exitY=1;exitDx=0;exitDy=0;" parent="1" target="108" edge="1">
                    <mxGeometry relative="1" as="geometry">
                        <mxPoint x="1450" y="1730" as="sourcePoint"/>
                        <Array as="points">
                            <mxPoint x="1450" y="2020"/>
                            <mxPoint x="320" y="2020"/>
                        </Array>
                    </mxGeometry>
                </mxCell>
                <mxCell id="143" value="" style="edgeStyle=none;html=1;fontSize=14;fillColor=#CCCCFF;entryX=0.5;entryY=0;entryDx=0;entryDy=0;" parent="1" source="96" target="156" edge="1">
                    <mxGeometry relative="1" as="geometry">
                        <mxPoint x="1450" y="1680" as="targetPoint"/>
                    </mxGeometry>
                </mxCell>
                <mxCell id="96" value="Mensaje sobre la información de la carrera y características sobre la carrera." style="rounded=1;whiteSpace=wrap;html=1;fontSize=14;fillColor=#CCCCFF;" parent="1" vertex="1">
                    <mxGeometry x="1390" y="1540" width="120" height="90" as="geometry"/>
                </mxCell>
                <mxCell id="121" style="edgeStyle=none;html=1;entryX=0.5;entryY=0;entryDx=0;entryDy=0;fontSize=14;exitX=0.5;exitY=1;exitDx=0;exitDy=0;" parent="1" target="108" edge="1">
                    <mxGeometry relative="1" as="geometry">
                        <mxPoint x="420" y="1990" as="sourcePoint"/>
                        <Array as="points">
                            <mxPoint x="420" y="2020"/>
                            <mxPoint x="320" y="2020"/>
                        </Array>
                    </mxGeometry>
                </mxCell>
                <mxCell id="133" value="" style="edgeStyle=none;html=1;fontSize=14;fillColor=#CCCCFF;entryX=0.5;entryY=0;entryDx=0;entryDy=0;" parent="1" source="97" target="150" edge="1">
                    <mxGeometry relative="1" as="geometry">
                        <mxPoint x="420" y="1940" as="targetPoint"/>
                    </mxGeometry>
                </mxCell>
                <mxCell id="97" value="Mensaje sobre la información de la carrera y características sobre la carrera." style="rounded=1;whiteSpace=wrap;html=1;fontSize=14;fillColor=#CCCCFF;" parent="1" vertex="1">
                    <mxGeometry x="360" y="1820" width="120" height="90" as="geometry"/>
                </mxCell>
                <mxCell id="120" style="edgeStyle=none;html=1;fontSize=14;entryX=0.5;entryY=0;entryDx=0;entryDy=0;exitX=0.5;exitY=1;exitDx=0;exitDy=0;startArrow=none;" parent="1" source="147" target="108" edge="1">
                    <mxGeometry relative="1" as="geometry">
                        <mxPoint x="330" y="2130" as="targetPoint"/>
                        <mxPoint x="180" y="1990" as="sourcePoint"/>
                        <Array as="points">
                            <mxPoint x="180" y="2020"/>
                            <mxPoint x="320" y="2020"/>
                        </Array>
                    </mxGeometry>
                </mxCell>
                <mxCell id="131" value="" style="edgeStyle=none;html=1;fontSize=14;fillColor=#CCCCFF;entryX=0.5;entryY=0;entryDx=0;entryDy=0;" parent="1" source="98" target="147" edge="1">
                    <mxGeometry relative="1" as="geometry">
                        <mxPoint x="180" y="1940" as="targetPoint"/>
                    </mxGeometry>
                </mxCell>
                <mxCell id="98" value="Mensaje sobre la información de la carrera y características sobre la carrera." style="rounded=1;whiteSpace=wrap;html=1;fontSize=14;fillColor=#CCCCFF;" parent="1" vertex="1">
                    <mxGeometry x="120" y="1820" width="120" height="90" as="geometry"/>
                </mxCell>
                <mxCell id="119" style="edgeStyle=none;html=1;entryX=0.5;entryY=0;entryDx=0;entryDy=0;fontSize=14;exitX=0.5;exitY=1;exitDx=0;exitDy=0;" parent="1" source="128" target="108" edge="1">
                    <mxGeometry relative="1" as="geometry">
                        <mxPoint x="-50" y="2100" as="sourcePoint"/>
                        <Array as="points">
                            <mxPoint x="-50" y="2120"/>
                            <mxPoint x="320" y="2120"/>
                        </Array>
                    </mxGeometry>
                </mxCell>
                <mxCell id="129" value="" style="edgeStyle=none;html=1;fontSize=14;fillColor=#CCCCFF;" parent="1" source="99" target="128" edge="1">
                    <mxGeometry relative="1" as="geometry"/>
                </mxCell>
                <mxCell id="99" value="Mensaje sobre la información de la carrera y características sobre la carrera." style="rounded=1;whiteSpace=wrap;html=1;fontSize=14;fillColor=#CCCCFF;" parent="1" vertex="1">
                    <mxGeometry x="-110" y="1900" width="120" height="90" as="geometry"/>
                </mxCell>
                <mxCell id="110" value="" style="edgeStyle=none;html=1;fontSize=14;" parent="1" source="108" target="109" edge="1">
                    <mxGeometry relative="1" as="geometry"/>
                </mxCell>
                <mxCell id="114" value="" style="edgeStyle=none;html=1;fontSize=14;entryX=1;entryY=0.5;entryDx=0;entryDy=0;fillColor=#FF2212;" parent="1" source="108" target="47" edge="1">
                    <mxGeometry relative="1" as="geometry">
                        <mxPoint x="1000" y="1190" as="targetPoint"/>
                        <Array as="points">
                            <mxPoint x="940" y="2250"/>
                            <mxPoint x="940" y="2040"/>
                            <mxPoint x="950" y="2040"/>
                            <mxPoint x="950" y="2000"/>
                            <mxPoint x="940" y="2000"/>
                            <mxPoint x="940" y="1500"/>
                            <mxPoint x="940" y="1300"/>
                            <mxPoint x="950" y="1300"/>
                            <mxPoint x="950" y="1260"/>
                            <mxPoint x="940" y="1260"/>
                            <mxPoint x="940" y="1020"/>
                            <mxPoint x="950" y="1020"/>
                            <mxPoint x="950" y="990"/>
                            <mxPoint x="940" y="990"/>
                            <mxPoint x="940" y="790"/>
                        </Array>
                    </mxGeometry>
                </mxCell>
                <mxCell id="108" value="Respondio el usuario?" style="rhombus;whiteSpace=wrap;html=1;fontSize=14;fillColor=#FFFF66;" parent="1" vertex="1">
                    <mxGeometry x="270" y="2200" width="100" height="100" as="geometry"/>
                </mxCell>
                <mxCell id="112" value="" style="edgeStyle=none;html=1;fontSize=14;fillColor=#CCCCFF;" parent="1" source="109" target="111" edge="1">
                    <mxGeometry relative="1" as="geometry"/>
                </mxCell>
                <mxCell id="109" value="Esperar 1 hora.&amp;nbsp;" style="rounded=1;whiteSpace=wrap;html=1;fontSize=14;fillColor=#CCCCFF;" parent="1" vertex="1">
                    <mxGeometry x="260" y="2340" width="120" height="60" as="geometry"/>
                </mxCell>
                <mxCell id="118" value="" style="edgeStyle=none;html=1;fontSize=14;" parent="1" source="111" target="117" edge="1">
                    <mxGeometry relative="1" as="geometry"/>
                </mxCell>
                <mxCell id="111" value="Mensaje de seguimiento." style="rounded=1;whiteSpace=wrap;html=1;fontSize=14;fillColor=#CCCCFF;" parent="1" vertex="1">
                    <mxGeometry x="260" y="2440" width="120" height="60" as="geometry"/>
                </mxCell>
                <mxCell id="116" value="NO" style="text;html=1;align=center;verticalAlign=middle;resizable=0;points=[];autosize=1;strokeColor=none;fillColor=none;fontSize=14;" parent="1" vertex="1">
                    <mxGeometry x="280" y="2300" width="40" height="30" as="geometry"/>
                </mxCell>
                <mxCell id="117" value="FIN" style="ellipse;whiteSpace=wrap;html=1;fontSize=14;rounded=1;fillColor=#FF9999;" parent="1" vertex="1">
                    <mxGeometry x="280" y="2570" width="80" height="80" as="geometry"/>
                </mxCell>
                <mxCell id="126" value="SI" style="text;html=1;align=center;verticalAlign=middle;resizable=0;points=[];autosize=1;strokeColor=none;fillColor=none;fontSize=14;" parent="1" vertex="1">
                    <mxGeometry x="370" y="2220" width="40" height="30" as="geometry"/>
                </mxCell>
                <mxCell id="128" value="Contactar a un asesor educativo." style="rounded=1;whiteSpace=wrap;html=1;fontSize=14;fillColor=#CCCCFF;" parent="1" vertex="1">
                    <mxGeometry x="-110" y="2020" width="120" height="40" as="geometry"/>
                </mxCell>
                <mxCell id="145" value="" style="edgeStyle=none;html=1;fontSize=14;fillColor=#CCCCFF;" parent="1" source="144" target="2" edge="1">
                    <mxGeometry relative="1" as="geometry"/>
                </mxCell>
                <mxCell id="144" value="INICIO" style="ellipse;whiteSpace=wrap;html=1;aspect=fixed;fontSize=14;fillColor=#99FF99;" parent="1" vertex="1">
                    <mxGeometry x="870" y="370" width="80" height="80" as="geometry"/>
                </mxCell>
                <mxCell id="146" value="NO" style="text;html=1;align=center;verticalAlign=middle;resizable=0;points=[];autosize=1;strokeColor=none;fillColor=none;" parent="1" vertex="1">
                    <mxGeometry x="750" y="590" width="40" height="30" as="geometry"/>
                </mxCell>
                <mxCell id="148" value="" style="edgeStyle=none;html=1;fontSize=14;entryX=0.5;entryY=0;entryDx=0;entryDy=0;exitX=0.5;exitY=1;exitDx=0;exitDy=0;endArrow=none;" edge="1" parent="1" target="147">
                    <mxGeometry relative="1" as="geometry">
                        <mxPoint x="320" y="2200" as="targetPoint"/>
                        <mxPoint x="180" y="1990" as="sourcePoint"/>
                        <Array as="points"/>
                    </mxGeometry>
                </mxCell>
                <mxCell id="147" value="Contactar a un asesor educativo." style="rounded=1;whiteSpace=wrap;html=1;fontSize=14;fillColor=#CCCCFF;" vertex="1" parent="1">
                    <mxGeometry x="120" y="1950" width="120" height="40" as="geometry"/>
                </mxCell>
                <mxCell id="150" value="Contactar a un asesor educativo." style="rounded=1;whiteSpace=wrap;html=1;fontSize=14;fillColor=#CCCCFF;" vertex="1" parent="1">
                    <mxGeometry x="360" y="1950" width="120" height="40" as="geometry"/>
                </mxCell>
                <mxCell id="151" value="Contactar a un asesor educativo." style="rounded=1;whiteSpace=wrap;html=1;fontSize=14;fillColor=#CCCCFF;" vertex="1" parent="1">
                    <mxGeometry x="540" y="1670" width="120" height="40" as="geometry"/>
                </mxCell>
                <mxCell id="152" value="Contactar a un asesor educativo." style="rounded=1;whiteSpace=wrap;html=1;fontSize=14;fillColor=#CCCCFF;" vertex="1" parent="1">
                    <mxGeometry x="770" y="1680" width="120" height="40" as="geometry"/>
                </mxCell>
                <mxCell id="153" value="Contactar a un asesor educativo." style="rounded=1;whiteSpace=wrap;html=1;fontSize=14;fillColor=#CCCCFF;" vertex="1" parent="1">
                    <mxGeometry x="970" y="1670" width="120" height="40" as="geometry"/>
                </mxCell>
                <mxCell id="155" value="Contactar a un asesor educativo." style="rounded=1;whiteSpace=wrap;html=1;fontSize=14;fillColor=#CCCCFF;" vertex="1" parent="1">
                    <mxGeometry x="1170" y="1845" width="120" height="40" as="geometry"/>
                </mxCell>
                <mxCell id="156" value="Contactar a un asesor educativo." style="rounded=1;whiteSpace=wrap;html=1;fontSize=14;fillColor=#CCCCFF;" vertex="1" parent="1">
                    <mxGeometry x="1390" y="1690" width="120" height="40" as="geometry"/>
                </mxCell>
                <mxCell id="176" style="edgeStyle=none;html=1;entryX=0.5;entryY=0;entryDx=0;entryDy=0;" edge="1" parent="1" source="157" target="108">
                    <mxGeometry relative="1" as="geometry">
                        <mxPoint x="1450" y="2030" as="targetPoint"/>
                        <Array as="points">
                            <mxPoint x="1810" y="2020"/>
                            <mxPoint x="320" y="2020"/>
                        </Array>
                    </mxGeometry>
                </mxCell>
                <mxCell id="157" value="Reinscripciones." style="rounded=1;whiteSpace=wrap;html=1;fillColor=#CCCCFF;" vertex="1" parent="1">
                    <mxGeometry x="1750" y="1500" width="120" height="60" as="geometry"/>
                </mxCell>
                <mxCell id="177" style="edgeStyle=none;html=1;" edge="1" parent="1" source="158">
                    <mxGeometry relative="1" as="geometry">
                        <mxPoint x="320" y="2200" as="targetPoint"/>
                        <Array as="points">
                            <mxPoint x="1960" y="2020"/>
                            <mxPoint x="320" y="2020"/>
                        </Array>
                    </mxGeometry>
                </mxCell>
                <mxCell id="158" value="Colegiatura." style="rounded=1;whiteSpace=wrap;html=1;fillColor=#CCCCFF;" vertex="1" parent="1">
                    <mxGeometry x="1900" y="1500" width="120" height="60" as="geometry"/>
                </mxCell>
                <mxCell id="178" style="edgeStyle=none;html=1;entryX=0.5;entryY=0;entryDx=0;entryDy=0;" edge="1" parent="1" source="159" target="108">
                    <mxGeometry relative="1" as="geometry">
                        <mxPoint x="1090" y="1960" as="targetPoint"/>
                        <Array as="points">
                            <mxPoint x="2100" y="2020"/>
                            <mxPoint x="320" y="2020"/>
                        </Array>
                    </mxGeometry>
                </mxCell>
                <mxCell id="159" value="Costos." style="rounded=1;whiteSpace=wrap;html=1;fillColor=#CCCCFF;" vertex="1" parent="1">
                    <mxGeometry x="2040" y="1500" width="120" height="60" as="geometry"/>
                </mxCell>
                <mxCell id="179" style="edgeStyle=none;html=1;entryX=0.5;entryY=0;entryDx=0;entryDy=0;" edge="1" parent="1" source="160" target="108">
                    <mxGeometry relative="1" as="geometry">
                        <mxPoint x="320" y="2190" as="targetPoint"/>
                        <Array as="points">
                            <mxPoint x="2250" y="2020"/>
                            <mxPoint x="320" y="2020"/>
                        </Array>
                    </mxGeometry>
                </mxCell>
                <mxCell id="160" value="Ubicación." style="rounded=1;whiteSpace=wrap;html=1;fillColor=#CCCCFF;" vertex="1" parent="1">
                    <mxGeometry x="2190" y="1500" width="120" height="60" as="geometry"/>
                </mxCell>
                <mxCell id="180" style="edgeStyle=none;html=1;" edge="1" parent="1" source="161">
                    <mxGeometry relative="1" as="geometry">
                        <mxPoint x="320" y="2200" as="targetPoint"/>
                        <Array as="points">
                            <mxPoint x="2400" y="2020"/>
                            <mxPoint x="320" y="2020"/>
                        </Array>
                    </mxGeometry>
                </mxCell>
                <mxCell id="161" value="Redes sociales." style="rounded=1;whiteSpace=wrap;html=1;fillColor=#CCCCFF;" vertex="1" parent="1">
                    <mxGeometry x="2340" y="1500" width="120" height="60" as="geometry"/>
                </mxCell>
                <mxCell id="181" style="edgeStyle=none;html=1;entryX=0.5;entryY=0;entryDx=0;entryDy=0;" edge="1" parent="1" source="162" target="108">
                    <mxGeometry relative="1" as="geometry">
                        <mxPoint x="400" y="2110" as="targetPoint"/>
                        <Array as="points">
                            <mxPoint x="2540" y="2020"/>
                            <mxPoint x="320" y="2020"/>
                        </Array>
                    </mxGeometry>
                </mxCell>
                <mxCell id="162" value="Reclutamiento." style="rounded=1;whiteSpace=wrap;html=1;fillColor=#CCCCFF;" vertex="1" parent="1">
                    <mxGeometry x="2480" y="1500" width="120" height="60" as="geometry"/>
                </mxCell>
                <mxCell id="182" style="edgeStyle=none;html=1;" edge="1" parent="1" source="163">
                    <mxGeometry relative="1" as="geometry">
                        <mxPoint x="320" y="2200" as="targetPoint"/>
                        <Array as="points">
                            <mxPoint x="2690" y="2020"/>
                            <mxPoint x="320" y="2020"/>
                        </Array>
                    </mxGeometry>
                </mxCell>
                <mxCell id="163" value="Servicios escolares." style="rounded=1;whiteSpace=wrap;html=1;fillColor=#CCCCFF;" vertex="1" parent="1">
                    <mxGeometry x="2630" y="1500" width="120" height="60" as="geometry"/>
                </mxCell>
                <mxCell id="183" style="edgeStyle=none;html=1;" edge="1" parent="1" source="165">
                    <mxGeometry relative="1" as="geometry">
                        <mxPoint x="320" y="2200" as="targetPoint"/>
                        <Array as="points">
                            <mxPoint x="2840" y="2020"/>
                            <mxPoint x="320" y="2020"/>
                        </Array>
                    </mxGeometry>
                </mxCell>
                <mxCell id="165" value="Cajas." style="rounded=1;whiteSpace=wrap;html=1;fillColor=#CCCCFF;" vertex="1" parent="1">
                    <mxGeometry x="2780" y="1500" width="120" height="60" as="geometry"/>
                </mxCell>
                <mxCell id="184" style="edgeStyle=none;html=1;" edge="1" parent="1" source="166">
                    <mxGeometry relative="1" as="geometry">
                        <mxPoint x="320" y="2200" as="targetPoint"/>
                        <Array as="points">
                            <mxPoint x="2980" y="2020"/>
                            <mxPoint x="320" y="2020"/>
                        </Array>
                    </mxGeometry>
                </mxCell>
                <mxCell id="166" value="Uniformes y libros." style="rounded=1;whiteSpace=wrap;html=1;fillColor=#CCCCFF;" vertex="1" parent="1">
                    <mxGeometry x="2920" y="1500" width="120" height="60" as="geometry"/>
                </mxCell>
            </root>
        </mxGraphModel>
    </diagram>
</mxfile>